<svg xmlns="http://www.w3.org/2000/svg" xmlns:xlink="http://www.w3.org/1999/xlink" version="1.1" width="256" height="256" viewBox="0 0 256 256" xml:space="preserve">

<defs>
</defs>
<g style="stroke: none; stroke-width: 0; stroke-dasharray: none; stroke-linecap: butt; stroke-linejoin: miter; stroke-miterlimit: 10; fill: none; fill-rule: nonzero; opacity: 1;" transform="translate(1.4065934065934016 1.4065934065934016) scale(2.81 2.81)" >
	<path d="M 86.126 42.437 c -0.468 -0.174 -0.844 -0.495 -1.088 -0.928 c -1.606 -2.845 -4.247 -3.266 -6.094 -3.334 c -7.648 -0.284 -13.951 -0.392 -19.536 -0.31 L 41.698 27.107 c -0.935 -0.568 -2.008 -0.868 -3.103 -0.868 h -2.906 c -1.258 0 -2.39 0.748 -2.883 1.905 s -0.249 2.492 0.63 3.407 l 7.331 7.554 c -0.953 0.12 -1.907 0.246 -2.867 0.385 c -0.615 0.086 -1.249 -0.123 -1.698 -0.565 l -4.739 -4.655 c -1.033 -1.024 -2.402 -1.588 -3.857 -1.588 h -1.293 c -0.876 0 -1.684 0.4 -2.215 1.097 c -0.531 0.697 -0.703 1.581 -0.487 2.363 l 2.11 8.798 l -2.015 3.533 c -0.498 0.689 -0.607 1.594 -0.267 2.393 c 0.385 0.905 1.27 1.49 2.254 1.49 h 1.151 c 0.656 0 1.299 -0.181 1.856 -0.52 l 4.277 -2.597 c 2.815 0.638 5.467 1.102 7.895 1.462 l -7.444 7.755 c -0.871 0.907 -1.115 2.241 -0.622 3.398 s 1.625 1.905 2.883 1.905 h 2.906 c 1.094 0 2.167 -0.301 3.102 -0.869 l 17.521 -10.641 h 25.3 c 0.155 0 0.307 -0.018 0.452 -0.052 C 88.655 51.82 90 49.406 90 47.135 C 90 45.158 88.479 43.313 86.126 42.437 z M 37.736 30.239 h 0.859 c 0.362 0 0.717 0.099 1.026 0.287 l 12.474 7.576 c -2.162 0.113 -4.246 0.263 -6.288 0.452 L 37.736 30.239 z M 83.932 48.251 H 65.706 c 0.66 -0.635 0.82 -1.661 0.324 -2.477 c -0.572 -0.943 -1.802 -1.244 -2.747 -0.671 L 39.621 59.474 c -0.31 0.188 -0.664 0.287 -1.025 0.287 h -0.874 L 48.82 48.197 c 0.765 -0.797 0.738 -2.063 -0.059 -2.828 c -0.797 -0.764 -2.063 -0.738 -2.828 0.058 l -1.641 1.71 c -3.268 -0.423 -7.076 -0.997 -11.204 -1.974 c -0.049 -0.012 -0.098 -0.012 -0.148 -0.02 c -0.077 -0.012 -0.153 -0.027 -0.232 -0.031 c -0.074 -0.003 -0.147 0.005 -0.22 0.011 c -0.056 0.004 -0.113 0.003 -0.169 0.012 c -0.081 0.013 -0.159 0.037 -0.237 0.059 c -0.047 0.013 -0.095 0.021 -0.141 0.038 c -0.092 0.034 -0.179 0.079 -0.266 0.126 c -0.029 0.015 -0.059 0.024 -0.087 0.041 l -2.338 1.419 l 0.334 -0.586 c 0.252 -0.442 0.326 -0.963 0.208 -1.458 l -1.938 -8.074 c 0.297 0.051 0.573 0.192 0.796 0.414 l 4.745 4.662 c 1.334 1.312 3.231 1.937 5.072 1.67 c 11.306 -1.63 21.858 -1.964 40.325 -1.278 c 1.908 0.071 2.394 0.657 2.758 1.302 c 0.703 1.249 1.832 2.212 3.177 2.712 c 0.819 0.306 1.241 0.813 1.27 0.949 C 86 47.579 86 48.251 83.932 48.251 z" style="stroke: none; stroke-width: 1; stroke-dasharray: none; stroke-linecap: butt; stroke-linejoin: miter; stroke-miterlimit: 10; fill: rgb(0,0,0); fill-rule: nonzero; opacity: 1;" transform=" matrix(1 0 0 1 0 0) " stroke-linecap="round" />
	<path d="M 26.297 30.239 H 2 c -1.104 0 -2 -0.896 -2 -2 s 0.896 -2 2 -2 h 24.297 c 1.104 0 2 0.896 2 2 S 27.401 30.239 26.297 30.239 z" style="stroke: none; stroke-width: 1; stroke-dasharray: none; stroke-linecap: butt; stroke-linejoin: miter; stroke-miterlimit: 10; fill: rgb(0,0,0); fill-rule: nonzero; opacity: 1;" transform=" matrix(1 0 0 1 0 0) " stroke-linecap="round" />
	<path d="M 26.297 63.761 H 2 c -1.104 0 -2 -0.896 -2 -2 s 0.896 -2 2 -2 h 24.297 c 1.104 0 2 0.896 2 2 S 27.401 63.761 26.297 63.761 z" style="stroke: none; stroke-width: 1; stroke-dasharray: none; stroke-linecap: butt; stroke-linejoin: miter; stroke-miterlimit: 10; fill: rgb(0,0,0); fill-rule: nonzero; opacity: 1;" transform=" matrix(1 0 0 1 0 0) " stroke-linecap="round" />
	<path d="M 17.547 46.999 H 2 c -1.104 0 -2 -0.896 -2 -2 s 0.896 -2 2 -2 h 15.547 c 1.104 0 2 0.896 2 2 S 18.652 46.999 17.547 46.999 z" style="stroke: none; stroke-width: 1; stroke-dasharray: none; stroke-linecap: butt; stroke-linejoin: miter; stroke-miterlimit: 10; fill: rgb(0,0,0); fill-rule: nonzero; opacity: 1;" transform=" matrix(1 0 0 1 0 0) " stroke-linecap="round" />
	<path d="M 17.547 38.441 H 2 c -1.104 0 -2 -0.896 -2 -2 s 0.896 -2 2 -2 h 15.547 c 1.104 0 2 0.896 2 2 S 18.652 38.441 17.547 38.441 z" style="stroke: none; stroke-width: 1; stroke-dasharray: none; stroke-linecap: butt; stroke-linejoin: miter; stroke-miterlimit: 10; fill: rgb(0,0,0); fill-rule: nonzero; opacity: 1;" transform=" matrix(1 0 0 1 0 0) " stroke-linecap="round" />
	<path d="M 20.185 55.557 H 2 c -1.104 0 -2 -0.896 -2 -2 s 0.896 -2 2 -2 h 18.185 c 1.104 0 2 0.896 2 2 S 21.29 55.557 20.185 55.557 z" style="stroke: none; stroke-width: 1; stroke-dasharray: none; stroke-linecap: butt; stroke-linejoin: miter; stroke-miterlimit: 10; fill: rgb(0,0,0); fill-rule: nonzero; opacity: 1;" transform=" matrix(1 0 0 1 0 0) " stroke-linecap="round" />
</g>
</svg>